Coordinates
version=1
nRows=14
nColumns=40
inDegrees=yes

Units are S.I. units (second, meters, Newtons, ...)
Angles are in degrees.

endheader
time	pelvis_tilt	pelvis_list	pelvis_rotation	pelvis_tx	pelvis_ty	pelvis_tz	hip_flexion_r	hip_adduction_r	hip_rotation_r	knee_angle_r	knee_angle_r_beta	ankle_angle_r	subtalar_angle_r	mtp_angle_r	hip_flexion_l	hip_adduction_l	hip_rotation_l	knee_angle_l	knee_angle_l_beta	ankle_angle_l	subtalar_angle_l	mtp_angle_l	lumbar_extension	lumbar_bending	lumbar_rotation	arm_flex_r	arm_add_r	arm_rot_r	elbow_flex_r	pro_sup_r	wrist_flex_r	wrist_dev_r	arm_flex_l	arm_add_l	arm_rot_l	elbow_flex_l	pro_sup_l	wrist_flex_l	wrist_dev_l
      3.73500000	     -2.37734893	     -3.70580231	     -0.87376223	      1.09299718	      0.92989943	      0.47502916	     17.46953526	      0.59333882	     -8.51600672	     19.63173468	     19.63173468	      7.15946410	      2.13237280	     -3.30019176	      6.24157618	     -9.48235782	     -6.83550835	     35.27658987	     35.27658987	     15.37964411	    -11.57109741	     -3.68803160	     -9.99553206	      5.70892673	     -0.01283649	      2.35062076	    -13.72255754	     -4.83307698	     38.22398635	     45.70965252	      0.00000000	      0.00000000	     11.53239363	    -13.03805679	     -2.21475424	     56.73858933	     47.22402222	      0.00000000	      0.00000000
      3.74857143	     -2.26989520	     -3.71914576	     -0.50295917	      1.09275282	      0.93043949	      0.47735652	     16.82515477	      0.62113315	     -9.25165606	     19.42125044	     19.42125044	      7.37083261	      2.80844738	     -4.00913291	      8.04888758	     -9.80861611	     -5.58386282	     38.93445172	     38.93445172	     13.20996645	    -13.54039147	     -5.25019310	    -10.13933838	      5.75219265	      0.07100741	      3.12260462	    -14.62780508	     -2.94312539	     40.97726080	     45.51328921	      0.00000000	      0.00000000	     10.99368992	    -12.15445106	     -4.55985535	     55.77720387	     47.35898940	      0.00000000	      0.00000000
      3.76214286	     -2.19551053	     -3.88036671	     -0.09337704	      1.09223267	      0.93078419	      0.47969541	     16.21030833	      0.88785708	     -9.71279354	     19.16153938	     19.16153938	      7.65530746	      2.95392733	     -4.09343755	     10.09720978	    -10.35872967	     -4.49094453	     42.81907363	     42.81907363	     11.80285720	    -14.48750411	     -5.18864364	    -10.22496440	      5.92397206	      0.30936928	      4.51088275	    -15.08743350	     -2.89868020	     41.68065944	     45.49530018	      0.00000000	      0.00000000	     10.34565773	    -11.98839437	     -4.54141987	     55.29219426	     47.33892130	      0.00000000	      0.00000000
      3.77571429	     -2.15578027	     -3.98023898	      0.35282942	      1.09139740	      0.93093789	      0.48175078	     15.71168247	      1.05082342	    -10.22707960	     19.01211861	     19.01211861	      7.91313064	      3.15736240	     -4.47281326	     12.33319793	    -10.70431949	     -3.26969964	     46.74499866	     46.74499866	     11.46861035	    -14.89676155	     -2.25389082	    -10.30345554	      6.04814465	      0.40246300	      5.65859490	    -15.96968216	     -1.33158900	     43.69001551	     45.36473382	      0.00000000	      0.00000000	      9.86892472	    -11.58466510	     -5.63746553	     54.28433690	     47.36141043	      0.00000000	      0.00000000
      3.78928571	     -2.06940660	     -4.18714051	      0.79769318	      1.09038886	      0.93105962	      0.48379662	     15.17369684	      1.37601718	    -10.59015526	     18.83952806	     18.83952806	      8.19279787	      3.11324780	     -4.52856425	     14.38577770	    -11.18110981	     -2.23981770	     50.04014155	     50.04014155	     10.18822630	    -15.50940317	     -1.97962251	    -10.45845212	      6.25981562	      0.74722037	      7.13716767	    -16.51129430	     -1.43928223	     44.36676136	     45.35596120	      0.00000000	      0.00000000	      9.32794472	    -11.47810759	     -5.63140716	     53.84698624	     47.34574663	      0.00000000	      0.00000000
      3.80285714	     -2.15542551	     -4.32074479	      1.28540750	      1.08908941	      0.93091591	      0.48564611	     14.85213597	      1.62458455	    -10.89989255	     18.67001292	     18.67001292	      8.46677508	      2.88218911	     -4.60606644	     16.66209540	    -11.46794298	     -1.17949631	     52.99098088	     52.99098088	      9.24918684	    -16.03662297	     -1.03140420	    -10.40982962	      6.40736224	      0.80031765	      8.59659280	    -16.93325961	     -1.40699190	     45.44011591	     45.32612072	      0.00000000	      0.00000000	      8.64030204	    -11.49214842	     -5.80802812	     53.04218143	     47.33732720	      0.00000000	      0.00000000
      3.81642857	     -2.18809832	     -4.42386536	      1.73653546	      1.08760008	      0.93082738	      0.48738295	     14.53182209	      1.87127741	    -11.00895203	     18.55127620	     18.55127620	      8.61754009	      2.36464950	     -4.90249998	     18.96477510	    -11.65371926	     -0.20955335	     55.78189934	     55.78189934	     10.26285797	    -15.69502456	      4.17240336	    -10.47159084	      6.48972789	      1.01923664	      9.57955022	    -17.94834475	     -0.02049077	     47.98254681	     45.19384274	      0.00000000	      0.00000000	      8.47786575	    -11.02435697	     -7.26932429	     51.36226114	     47.39323840	      0.00000000	      0.00000000
      3.83000000	     -2.21835434	     -4.55263304	      2.24494695	      1.08605280	      0.93079427	      0.48900956	     14.19301241	      2.12038542	    -11.22584932	     18.39730153	     18.39730153	      8.89966693	      2.07282996	     -4.94568289	     20.99028882	    -11.87698444	      0.58463504	     57.51245783	     57.51245783	      9.61193892	    -16.11040803	      4.54396116	    -10.52139677	      6.57830873	      1.15288212	     11.14524402	    -18.37421950	     -0.14124915	     48.87398549	     45.17941397	      0.00000000	      0.00000000	      7.86892886	    -11.10880992	     -7.33684385	     50.75911131	     47.37806948	      0.00000000	      0.00000000
      3.84357143	     -2.27862885	     -4.57859575	      2.72907380	      1.08438200	      0.93086778	      0.49051517	     13.89129198	      2.30962274	    -11.20715505	     18.20317384	     18.20317384	      8.99890974	      1.31283107	     -5.15115955	     23.01089433	    -11.94543676	      1.21022875	     58.78047113	     58.78047113	     10.04298423	    -16.23324912	      7.15113439	    -10.57390586	      6.56882361	      1.23098631	     12.39531823	    -19.14139313	      0.77636262	     51.12603706	     45.09233219	      0.00000000	      0.00000000	      7.63573464	    -10.92854502	     -8.51890943	     49.06827989	     47.40832305	      0.00000000	      0.00000000
      3.85714286	     -2.35289038	     -4.60694965	      3.24965046	      1.08272075	      0.93098999	      0.49187927	     13.57431050	      2.45489357	    -11.39810294	     17.97563815	     17.97563815	      9.22634279	      0.97454191	     -5.16052978	     24.85092833	    -12.00715577	      1.67899286	     59.19597270	     59.19597270	      9.70885793	    -16.75584027	      7.41319146	    -10.58315299	      6.51691126	      1.19594206	     14.01268886	    -19.41646250	      0.60961063	     52.19002972	     45.07477733	      0.00000000	      0.00000000	      6.98161827	    -11.11341292	     -8.63083661	     48.30877454	     47.39540914	      0.00000000	      0.00000000
      3.87071429	     -2.41085335	     -4.53256749	      3.76531701	      1.08101126	      0.93129151	      0.49308953	     13.22022557	      2.50629520	    -11.51505226	     17.69364397	     17.69364397	      9.35476637	      0.48151763	     -5.14655458	     26.49591047	    -11.95335312	      1.91562854	     58.92125402	     58.92125402	      9.64809890	    -17.22028223	      7.82575832	    -10.66856190	      6.40250454	      1.04874628	     15.59954195	    -19.59043865	      0.59856758	     53.66879005	     45.03698789	      0.00000000	      0.00000000	      6.37184126	    -11.35601204	     -8.93819252	     47.16849847	     47.39530713	      0.00000000	      0.00000000
      3.88428571	     -2.46957759	     -4.45028824	      4.26446640	      1.07932139	      0.93166540	      0.49418484	     12.83048183	      2.56016396	    -11.56679531	     17.33580243	     17.33580243	      9.36914364	     -0.06309697	     -5.43596867	     27.99501767	    -11.88151840	      1.98933042	     58.04829146	     58.04829146	      9.95419629	    -17.53564865	      8.89297419	    -10.75900119	      6.26464759	      1.32691492	     16.51734905	    -20.38989757	      1.26331292	     56.31092980	     44.95031751	      0.00000000	      0.00000000	      6.52261187	    -11.08596093	    -10.31373648	     44.89445940	     47.45718677	      0.00000000	      0.00000000
      3.89785714	     -2.52871488	     -4.33551021	      4.79607693	      1.07768362	      0.93211919	      0.49509534	     12.39499793	      2.54005500	    -11.80643773	     16.93297931	     16.93297931	      9.49359900	     -0.26484824	     -5.42622467	     29.27058187	    -11.74315705	      1.93116314	     56.47941726	     56.47941726	     10.03697654	    -17.87621882	      9.22615485	    -10.84237400	      6.07918542	      1.13615377	     18.13739046	    -20.40124695	      1.04728322	     57.65703260	     44.92675540	      0.00000000	      0.00000000	      5.85482552	    -11.39207058	    -10.50192212	     43.94094109	     47.44856911	      0.00000000	      0.00000000
      3.91142857	     -2.59849359	     -4.38837919	      5.32220187	      1.07609093	      0.93226110	      0.49604215	     12.13661664	      2.66656588	    -12.16403942	     16.83733794	     16.83733794	      9.77431641	     -0.48759389	     -5.50062703	     30.48375141	    -11.81813046	      1.76158979	     54.51743274	     54.51743274	     10.28288385	    -17.85668669	      9.42811916	    -10.84523899	      6.00734122	      1.66775618	     19.24920227	    -20.71294203	      0.89207275	     58.15817307	     44.92191685	      0.00000000	      0.00000000	      5.45723919	    -11.51482380	    -10.56494019	     43.66111796	     47.44705966	      0.00000000	      0.00000000
